<svg width="120.000000" height="24.000000" viewBox="0 0 120 24" fill="none" xmlns="http://www.w3.org/2000/svg" xmlns:xlink="http://www.w3.org/1999/xlink">
	<desc>
			Created with Pixso.
	</desc>
	<defs/>
	<circle id="Ellipse 2" cx="25.000000" cy="12.000000" r="12.000000" fill="#ECEFF2" fill-opacity="1.000000"/>
	<circle id="Ellipse 1" cx="12.000000" cy="12.000000" r="12.000000" fill="#2A6CEA" fill-opacity="1.000000"/>
	<path id="test" d="M112.43 18.16C113.02 18.49 113.71 18.66 114.49 18.66C115.84 18.66 116.93 18.18 117.75 17.24C118.62 16.26 119.05 14.94 119.05 13.26L119.05 13.1C119.05 11.4 118.61 10.08 117.73 9.12Q117.22 8.55 116.58 8.21Q115.66 7.74 114.49 7.74C113.76 7.74 113.09 7.92 112.49 8.28C111.91 8.62 111.46 9.07 111.15 9.62L111.15 3.24L108.25 3.24L108.25 18.44L111.15 18.44L111.15 16.78C111.43 17.35 111.86 17.81 112.43 18.16ZM88.79 4.14L85.55 4.14L85.55 18.44L94.61 18.44L94.61 15.9L88.79 15.9L88.79 4.14ZM48.64 17.77Q49.48 18.64 51.22 18.64Q52.18 18.64 52.98 18.36L52.98 16.12C52.67 16.25 52.3 16.32 51.88 16.32C51.1 16.32 50.72 15.9 50.72 15.08L50.72 10.04L52.92 10.04L52.92 7.98L50.72 7.98L50.72 5.72L47.84 5.72L47.84 7.98L46.5 7.98L46.5 10.04L47.84 10.04L47.84 15.34Q47.84 16.95 48.64 17.77ZM78.76 17.77Q79.6 18.64 81.33 18.64Q82.29 18.64 83.09 18.36L83.09 16.12C82.79 16.25 82.42 16.32 81.99 16.32C81.22 16.32 80.83 15.9 80.83 15.08L80.83 10.04L83.03 10.04L83.03 7.98L80.83 7.98L80.83 5.72L77.95 5.72L77.95 7.98L76.61 7.98L76.61 10.04L77.95 10.04L77.95 15.34Q77.95 16.95 78.76 17.77ZM56.7 17.74Q58.03 18.66 59.99 18.66Q62.15 18.66 63.43 17.76Q63.92 17.41 64.26 16.95Q64.83 16.2 64.99 15.14L62.25 15.14C62.05 16.11 61.32 16.6 60.07 16.6Q59.08 16.6 58.45 16.12Q58.31 16.02 58.19 15.9C57.75 15.42 57.51 14.74 57.47 13.86L65.01 13.86L65.01 13.06Q65.01 10.8 63.9 9.45Q63.7 9.21 63.47 9Q63.17 8.72 62.83 8.51Q61.62 7.74 59.91 7.74Q58.43 7.74 57.28 8.34Q56.63 8.68 56.09 9.22Q55.6 9.69 55.26 10.27Q54.53 11.51 54.53 13.18L54.53 13.34Q54.53 15.11 55.34 16.36Q55.66 16.84 56.09 17.24Q56.38 17.51 56.7 17.74ZM67.74 17.76C68.53 18.36 69.63 18.66 71.04 18.66Q73.14 18.66 74.28 17.78C75.05 17.19 75.44 16.34 75.44 15.22Q75.44 14.09 74.9 13.37Q74.69 13.09 74.4 12.88C73.76 12.44 72.75 12.12 71.38 11.94C70.61 11.83 70.07 11.7 69.78 11.54C69.5 11.38 69.36 11.13 69.36 10.8C69.36 10.48 69.49 10.22 69.74 10.02C70.01 9.82 70.37 9.72 70.84 9.72C71.35 9.72 71.73 9.82 71.98 10.02C72.23 10.22 72.4 10.54 72.48 10.98L75.14 10.98C75.01 9.83 74.55 8.99 73.76 8.46C73.01 7.98 72.03 7.74 70.82 7.74Q69.06 7.74 67.96 8.54Q67.28 9.02 66.96 9.68Q66.68 10.27 66.68 11Q66.68 12.31 67.33 13.01Q67.45 13.13 67.58 13.24C68.14 13.69 69.13 14.03 70.54 14.26C71.31 14.36 71.86 14.51 72.18 14.7Q72.42 14.83 72.54 15.03Q72.66 15.23 72.66 15.5C72.66 16.26 72.11 16.64 71.02 16.64C70.41 16.64 69.97 16.52 69.7 16.28C69.43 16.04 69.26 15.66 69.18 15.16L66.48 15.16C66.53 16.29 66.95 17.16 67.74 17.76ZM97.09 17.92C97.72 18.41 98.54 18.66 99.55 18.66C100.95 18.66 102 18.16 102.71 17.18L102.71 18.44L105.53 18.44L105.53 11.62C105.53 10.26 105.12 9.26 104.31 8.62C103.55 8.03 102.5 7.74 101.15 7.74C99.8 7.74 98.72 8.02 97.91 8.6Q97.37 8.99 97.02 9.51Q96.52 10.27 96.45 11.32L99.19 11.32C99.35 10.33 99.94 9.84 100.97 9.84C101.61 9.84 102.05 9.99 102.29 10.3Q102.67 10.76 102.67 11.76L102.67 12.18L101.49 12.18Q98.93 12.18 97.57 12.94C96.56 13.51 96.05 14.38 96.05 15.54C96.05 16.58 96.4 17.37 97.09 17.92ZM61.43 10.21Q62.11 10.79 62.19 12.08L57.51 12.08Q57.67 10.96 58.29 10.36C58.72 9.94 59.26 9.74 59.91 9.74Q60.88 9.74 61.43 10.21ZM115.47 15.62C115.05 16.14 114.43 16.4 113.63 16.4C112.82 16.4 112.19 16.14 111.73 15.62C111.28 15.08 111.05 14.3 111.05 13.28L111.05 13.12C111.05 12.09 111.28 11.31 111.73 10.78C112.2 10.23 112.83 9.96 113.61 9.96C114.37 9.96 114.98 10.22 115.43 10.76C115.89 11.29 116.11 12.08 116.11 13.12L116.11 13.28Q116.11 14.82 115.47 15.62ZM102.03 16.14C101.6 16.47 101.06 16.64 100.41 16.64C99.4 16.64 98.89 16.21 98.89 15.38C98.89 14.84 99.11 14.46 99.55 14.24C100 14.01 100.67 13.9 101.55 13.9L102.67 13.9L102.67 14.78Q102.67 15.27 102.46 15.64Q102.3 15.92 102.03 16.14Z" fill="#FFFFFF" fill-opacity="1.000000" fill-rule="evenodd"/>
</svg>
