<svg width="7.171875" height="13.965454" viewBox="0 0 7.17188 13.9655" fill="none" xmlns="http://www.w3.org/2000/svg" xmlns:xlink="http://www.w3.org/1999/xlink">
	<desc>
			Created with Pixso.
	</desc>
	<defs/>
	<path id="Vector" d="M0.29 12.25C0.1 12.44 0 12.7 0 12.96C0 13.23 0.1 13.48 0.29 13.67C0.48 13.86 0.73 13.96 1 13.96C1.26 13.96 1.51 13.85 1.7 13.67L6.29 9.08C6.85 8.52 7.17 7.76 7.17 6.96C7.17 6.16 6.85 5.4 6.29 4.84L1.7 0.25C1.51 0.08 1.26 -0.01 1 0C0.75 0 0.5 0.11 0.32 0.29C0.14 0.47 0.03 0.71 0.03 0.97C0.02 1.23 0.12 1.48 0.29 1.67L4.87 6.25C5.06 6.44 5.17 6.7 5.17 6.96C5.17 7.23 5.06 7.48 4.87 7.67L0.29 12.25Z" fill="#83898F" fill-opacity="1.000000" fill-rule="nonzero"/>
</svg>
