<svg width="15.107422" height="31.967163" viewBox="0 0 15.1074 31.9672" fill="none" xmlns="http://www.w3.org/2000/svg" xmlns:xlink="http://www.w3.org/1999/xlink">
	<desc>
			Created with Pixso.
	</desc>
	<defs/>
	<path id="Vector" d="M14.73 2.25C14.97 2 15.11 1.67 15.1 1.32C15.1 0.97 14.96 0.63 14.71 0.39C14.47 0.14 14.13 0 13.78 0C13.43 -0.01 13.09 0.13 12.84 0.37L1.95 11.27C0.7 12.52 0 14.21 0 15.98C0 17.75 0.7 19.44 1.95 20.69L12.84 31.59C13.09 31.83 13.43 31.97 13.78 31.96C14.13 31.96 14.47 31.82 14.71 31.57C14.96 31.32 15.1 30.99 15.1 30.64C15.11 30.29 14.97 29.95 14.73 29.7L3.83 18.81C3.08 18.06 2.66 17.04 2.66 15.98C2.66 14.92 3.08 13.9 3.83 13.15L14.73 2.25Z" fill="#C2C8CD" fill-opacity="1.000000" fill-rule="nonzero"/>
</svg>
